<svg xmlns="http://www.w3.org/2000/svg" viewBox="0 0 1024 1024" width="1024" height="1024">
  <defs>
    <linearGradient id="bg" x1="0" y1="0" x2="1" y2="1">
      <stop offset="0%" stop-color="#6366F1"/>
      <stop offset="100%" stop-color="#4338CA"/>
    </linearGradient>
  </defs>

  <!-- Background -->
  <rect width="1024" height="1024" rx="224" ry="224" fill="url(#bg)"/>

  <!-- Control point handles -->
  <line x1="200" y1="580" x2="380" y2="220" stroke="#FFFFFF" stroke-opacity="0.25" stroke-width="6"/>
  <line x1="824" y1="540" x2="644" y2="220" stroke="#FFFFFF" stroke-opacity="0.25" stroke-width="6"/>

  <!-- Main bezier curve -->
  <path d="M 200 580 C 380 220, 644 220, 824 540"
        fill="none" stroke="#FFFFFF" stroke-width="24" stroke-linecap="round"/>

  <!-- Control point dots -->
  <circle cx="380" cy="220" r="16" fill="none" stroke="#FFFFFF" stroke-opacity="0.5" stroke-width="5"/>
  <circle cx="644" cy="220" r="16" fill="none" stroke="#FFFFFF" stroke-opacity="0.5" stroke-width="5"/>

  <!-- Anchor points -->
  <circle cx="200" cy="580" r="20" fill="#FFFFFF"/>
  <circle cx="824" cy="540" r="20" fill="#FFFFFF"/>

  <!-- "Lottie Dev" as outlined paths — geometric rounded sans-serif -->
  <g fill="#FFFFFF" opacity="0.9" transform="translate(155, 710)">
    <!-- L -->
    <rect x="0" y="0" width="12" height="70" rx="3"/>
    <rect x="0" y="58" width="42" height="12" rx="3"/>

    <!-- o -->
    <rect x="60" y="22" width="12" height="48" rx="6"/>
    <rect x="92" y="22" width="12" height="48" rx="6"/>
    <rect x="60" y="22" width="44" height="12" rx="6"/>
    <rect x="60" y="58" width="44" height="12" rx="6"/>

    <!-- t -->
    <rect x="125" y="5" width="12" height="65" rx="3"/>
    <rect x="115" y="22" width="32" height="12" rx="3"/>

    <!-- t -->
    <rect x="165" y="5" width="12" height="65" rx="3"/>
    <rect x="155" y="22" width="32" height="12" rx="3"/>

    <!-- i -->
    <rect x="205" y="22" width="12" height="48" rx="3"/>
    <circle cx="211" cy="8" r="7"/>

    <!-- e -->
    <rect x="235" y="22" width="12" height="48" rx="6"/>
    <rect x="235" y="22" width="44" height="12" rx="6"/>
    <rect x="235" y="40" width="44" height="12" rx="6"/>
    <rect x="235" y="58" width="44" height="12" rx="6"/>

    <!-- space -->

    <!-- D -->
    <rect x="320" y="0" width="12" height="70" rx="3"/>
    <rect x="320" y="0" width="34" height="12" rx="6"/>
    <rect x="320" y="58" width="34" height="12" rx="6"/>
    <path d="M 354 12 Q 376 35 354 58" fill="none" stroke="#FFFFFF" stroke-width="12" stroke-linecap="round"/>

    <!-- e -->
    <rect x="395" y="22" width="12" height="48" rx="6"/>
    <rect x="395" y="22" width="44" height="12" rx="6"/>
    <rect x="395" y="40" width="44" height="12" rx="6"/>
    <rect x="395" y="58" width="44" height="12" rx="6"/>

    <!-- v -->
    <polygon points="457,22 475,70 493,22 505,22 480,74 470,74 445,22"/>
  </g>
</svg>
