<svg xmlns="http://www.w3.org/2000/svg" viewBox="0 0 1024 1024" width="1024" height="1024">
  <defs>
    <linearGradient id="bg" x1="0" y1="0" x2="1" y2="1">
      <stop offset="0%" stop-color="#6366F1"/>
      <stop offset="100%" stop-color="#4338CA"/>
    </linearGradient>
    <linearGradient id="curve-main" x1="0" y1="0" x2="1" y2="0">
      <stop offset="0%" stop-color="#C7D2FE"/>
      <stop offset="100%" stop-color="#FFFFFF"/>
    </linearGradient>
    <pattern id="dots" x="0" y="0" width="48" height="48" patternUnits="userSpaceOnUse">
      <circle cx="24" cy="24" r="1.5" fill="#FFFFFF" opacity="0.12"/>
    </pattern>
  </defs>

  <!-- Background -->
  <rect width="1024" height="1024" rx="224" ry="224" fill="url(#bg)"/>

  <!-- Subtle dot grid -->
  <rect width="1024" height="1024" rx="224" ry="224" fill="url(#dots)"/>

  <!-- Oscillating motion ribbon — each ghost has different curve shape, creating a 3D wave -->
  <!-- Frame 0 (oldest) — flattened S, shifted far -->
  <path d="M 150 730 C 390 290, 634 710, 874 270"
        fill="none" stroke="#FFFFFF" stroke-opacity="0.05" stroke-width="18" stroke-linecap="round"
        transform="translate(-90, -108)"/>
  <!-- Frame 1 — deep S, opposite oscillation -->
  <path d="M 150 670 C 390 90, 634 910, 874 330"
        fill="none" stroke="#FFFFFF" stroke-opacity="0.07" stroke-width="18" stroke-linecap="round"
        transform="translate(-76, -91)"/>
  <!-- Frame 2 — flattened S -->
  <path d="M 150 725 C 390 260, 634 740, 874 275"
        fill="none" stroke="#FFFFFF" stroke-opacity="0.09" stroke-width="20" stroke-linecap="round"
        transform="translate(-62, -74)"/>
  <!-- Frame 3 — deep S -->
  <path d="M 150 675 C 390 110, 634 890, 874 325"
        fill="none" stroke="#FFFFFF" stroke-opacity="0.12" stroke-width="20" stroke-linecap="round"
        transform="translate(-48, -58)"/>
  <!-- Frame 4 — flattened S, converging -->
  <path d="M 150 718 C 390 230, 634 770, 874 282"
        fill="none" stroke="#FFFFFF" stroke-opacity="0.15" stroke-width="22" stroke-linecap="round"
        transform="translate(-36, -43)"/>
  <!-- Frame 5 — deep S, converging -->
  <path d="M 150 682 C 390 135, 634 865, 874 318"
        fill="none" stroke="#FFFFFF" stroke-opacity="0.18" stroke-width="22" stroke-linecap="round"
        transform="translate(-24, -29)"/>
  <!-- Frame 6 — nearly main shape -->
  <path d="M 150 712 C 390 205, 634 795, 874 288"
        fill="none" stroke="#FFFFFF" stroke-opacity="0.22" stroke-width="24" stroke-linecap="round"
        transform="translate(-14, -17)"/>
  <!-- Frame 7 — slight opposite wiggle -->
  <path d="M 150 690 C 390 158, 634 842, 874 310"
        fill="none" stroke="#FFFFFF" stroke-opacity="0.26" stroke-width="26" stroke-linecap="round"
        transform="translate(-6, -7)"/>
  <!-- Frame 8 — almost converged -->
  <path d="M 150 706 C 390 190, 634 810, 874 294"
        fill="none" stroke="#FFFFFF" stroke-opacity="0.30" stroke-width="28" stroke-linecap="round"
        transform="translate(-2, -3)"/>

  <!-- Glow behind main curve -->
  <path d="M 150 700 C 390 180, 634 820, 874 300"
        fill="none" stroke="#A5B4FC" stroke-opacity="0.2" stroke-width="72" stroke-linecap="round"/>

  <!-- Control point handles — symmetrical -->
  <line x1="150" y1="700" x2="390" y2="180" stroke="#FFFFFF" stroke-opacity="0.3" stroke-width="5"/>
  <line x1="874" y1="300" x2="634" y2="820" stroke="#FFFFFF" stroke-opacity="0.3" stroke-width="5"/>

  <!-- Main S-curve -->
  <path d="M 150 700 C 390 180, 634 820, 874 300"
        fill="none" stroke="url(#curve-main)" stroke-width="30" stroke-linecap="round"/>

  <!-- Keyframe diamonds along the curve -->
  <rect x="302" y="388" width="14" height="14" rx="2" transform="rotate(45, 309, 395)" fill="#FFFFFF" opacity="0.35"/>
  <rect x="505" y="503" width="14" height="14" rx="2" transform="rotate(45, 512, 510)" fill="#FFFFFF" opacity="0.45"/>
  <rect x="698" y="430" width="14" height="14" rx="2" transform="rotate(45, 705, 437)" fill="#FFFFFF" opacity="0.55"/>

  <!-- Control point dots — hollow -->
  <circle cx="390" cy="180" r="18" fill="none" stroke="#FFFFFF" stroke-opacity="0.55" stroke-width="5"/>
  <circle cx="634" cy="820" r="18" fill="none" stroke="#FFFFFF" stroke-opacity="0.55" stroke-width="5"/>

  <!-- Anchor points — solid -->
  <circle cx="150" cy="700" r="22" fill="#FFFFFF"/>
  <circle cx="874" cy="300" r="22" fill="#FFFFFF"/>

  <!-- Leading dot with glow -->
  <circle cx="874" cy="300" r="44" fill="#FFFFFF" opacity="0.1"/>
  <circle cx="874" cy="300" r="32" fill="#FFFFFF" opacity="0.06"/>

  <!-- Speed particles near leading point -->
  <circle cx="830" cy="260" r="4" fill="#FFFFFF" opacity="0.4"/>
  <circle cx="810" cy="290" r="3" fill="#FFFFFF" opacity="0.3"/>
  <circle cx="845" cy="240" r="2.5" fill="#FFFFFF" opacity="0.25"/>
  <circle cx="790" cy="315" r="2" fill="#FFFFFF" opacity="0.2"/>

  <!-- Easing curve mini graph (bottom-right corner) -->
  <g transform="translate(770, 700)" opacity="0.2">
    <rect x="0" y="0" width="100" height="100" rx="8" fill="none" stroke="#FFFFFF" stroke-width="3"/>
    <line x1="0" y1="100" x2="100" y2="0" stroke="#FFFFFF" stroke-width="2" stroke-dasharray="4 4" opacity="0.5"/>
    <path d="M 0 100 C 40 100, 60 0, 100 0" fill="none" stroke="#FFFFFF" stroke-width="4" stroke-linecap="round"/>
  </g>

  <!-- Timeline ticks (bottom area) -->
  <g transform="translate(200, 880)" opacity="0.15">
    <line x1="0" y1="0" x2="624" y2="0" stroke="#FFFFFF" stroke-width="3" stroke-linecap="round"/>
    <line x1="0" y1="-8" x2="0" y2="8" stroke="#FFFFFF" stroke-width="3" stroke-linecap="round"/>
    <line x1="104" y1="-5" x2="104" y2="5" stroke="#FFFFFF" stroke-width="2" stroke-linecap="round"/>
    <line x1="208" y1="-8" x2="208" y2="8" stroke="#FFFFFF" stroke-width="3" stroke-linecap="round"/>
    <line x1="312" y1="-5" x2="312" y2="5" stroke="#FFFFFF" stroke-width="2" stroke-linecap="round"/>
    <line x1="416" y1="-8" x2="416" y2="8" stroke="#FFFFFF" stroke-width="3" stroke-linecap="round"/>
    <line x1="520" y1="-5" x2="520" y2="5" stroke="#FFFFFF" stroke-width="2" stroke-linecap="round"/>
    <line x1="624" y1="-8" x2="624" y2="8" stroke="#FFFFFF" stroke-width="3" stroke-linecap="round"/>
    <!-- Playhead -->
    <polygon points="306,12 318,12 312,20" fill="#FFFFFF" opacity="0.6"/>
  </g>
</svg>
