<svg xmlns="http://www.w3.org/2000/svg" viewBox="0 0 1024 1024" width="1024" height="1024">
  <defs>
    <linearGradient id="bg" x1="0" y1="0" x2="1" y2="1">
      <stop offset="0%" stop-color="#D8B4FE"/>
      <stop offset="100%" stop-color="#4338CA"/>
    </linearGradient>
    <linearGradient id="curve-main" x1="0" y1="0" x2="1" y2="0">
      <stop offset="0%" stop-color="#C7D2FE"/>
      <stop offset="100%" stop-color="#FFFFFF"/>
    </linearGradient>
    <pattern id="dots" x="0" y="0" width="48" height="48" patternUnits="userSpaceOnUse">
      <circle cx="24" cy="24" r="1.5" fill="#FFFFFF" opacity="0.12"/>
    </pattern>
  </defs>

  <!-- Background -->
  <rect width="1024" height="1024" rx="224" ry="224" fill="url(#bg)"/>

  <!-- Subtle dot grid -->
  <rect width="1024" height="1024" rx="224" ry="224" fill="url(#dots)"/>

  <!-- Wing-flap motion fan — anchors fixed, CPs swing from reverse curve through flat to deep S -->
  <!-- Frame 0 (oldest) — reverse curve -->
  <path d="M 150 700 C 390 690, 634 310, 874 300"
        fill="none" stroke="#FFFFFF" stroke-opacity="0.06" stroke-width="16" stroke-linecap="round"/>
  <!-- Frame 1 — slight reverse -->
  <path d="M 150 700 C 390 640, 634 360, 874 300"
        fill="none" stroke="#FFFFFF" stroke-opacity="0.07" stroke-width="17" stroke-linecap="round"/>
  <!-- Frame 2 — nearly flat -->
  <path d="M 150 700 C 390 575, 634 425, 874 300"
        fill="none" stroke="#FFFFFF" stroke-opacity="0.09" stroke-width="18" stroke-linecap="round"/>
  <!-- Frame 3 — starting to curve -->
  <path d="M 150 700 C 390 500, 634 500, 874 300"
        fill="none" stroke="#FFFFFF" stroke-opacity="0.11" stroke-width="19" stroke-linecap="round"/>
  <!-- Frame 4 -->
  <path d="M 150 700 C 390 420, 634 580, 874 300"
        fill="none" stroke="#FFFFFF" stroke-opacity="0.13" stroke-width="20" stroke-linecap="round"/>
  <!-- Frame 5 -->
  <path d="M 150 700 C 390 350, 634 650, 874 300"
        fill="none" stroke="#FFFFFF" stroke-opacity="0.16" stroke-width="21" stroke-linecap="round"/>
  <!-- Frame 6 -->
  <path d="M 150 700 C 390 290, 634 710, 874 300"
        fill="none" stroke="#FFFFFF" stroke-opacity="0.19" stroke-width="23" stroke-linecap="round"/>
  <!-- Frame 7 -->
  <path d="M 150 700 C 390 240, 634 760, 874 300"
        fill="none" stroke="#FFFFFF" stroke-opacity="0.23" stroke-width="25" stroke-linecap="round"/>
  <!-- Frame 8 -->
  <path d="M 150 700 C 390 210, 634 790, 874 300"
        fill="none" stroke="#FFFFFF" stroke-opacity="0.27" stroke-width="27" stroke-linecap="round"/>

  <!-- Glow behind main curve -->
  <path d="M 150 700 C 390 180, 634 820, 874 300"
        fill="none" stroke="#A5B4FC" stroke-opacity="0.2" stroke-width="72" stroke-linecap="round"/>

  <!-- Control point handles -->
  <line x1="150" y1="700" x2="390" y2="180" stroke="#FFFFFF" stroke-opacity="0.3" stroke-width="5"/>
  <line x1="874" y1="300" x2="634" y2="820" stroke="#FFFFFF" stroke-opacity="0.3" stroke-width="5"/>

  <!-- Main S-curve -->
  <path d="M 150 700 C 390 180, 634 820, 874 300"
        fill="none" stroke="url(#curve-main)" stroke-width="30" stroke-linecap="round"/>

  <!-- Keyframe diamonds along the curve -->
  <rect x="302" y="388" width="14" height="14" rx="2" transform="rotate(45, 309, 395)" fill="#FFFFFF" opacity="0.35"/>
  <rect x="505" y="503" width="14" height="14" rx="2" transform="rotate(45, 512, 510)" fill="#FFFFFF" opacity="0.45"/>
  <rect x="698" y="430" width="14" height="14" rx="2" transform="rotate(45, 705, 437)" fill="#FFFFFF" opacity="0.55"/>

  <!-- Control point dots — hollow -->
  <circle cx="390" cy="180" r="18" fill="none" stroke="#FFFFFF" stroke-opacity="0.55" stroke-width="5"/>
  <circle cx="634" cy="820" r="18" fill="none" stroke="#FFFFFF" stroke-opacity="0.55" stroke-width="5"/>

  <!-- Anchor points — solid -->
  <circle cx="150" cy="700" r="22" fill="#FFFFFF"/>
  <circle cx="874" cy="300" r="22" fill="#FFFFFF"/>

  <!-- Leading dot with glow -->
  <circle cx="874" cy="300" r="44" fill="#FFFFFF" opacity="0.1"/>

  <!-- Speed particles -->
  <circle cx="830" cy="260" r="4" fill="#FFFFFF" opacity="0.4"/>
  <circle cx="810" cy="290" r="3" fill="#FFFFFF" opacity="0.3"/>
  <circle cx="845" cy="240" r="2.5" fill="#FFFFFF" opacity="0.25"/>

  <!-- Floating rings (top-left) -->
  <circle cx="220" cy="230" r="36" fill="none" stroke="#FFFFFF" stroke-opacity="0.12" stroke-width="3"/>
  <circle cx="220" cy="230" r="22" fill="none" stroke="#FFFFFF" stroke-opacity="0.08" stroke-width="2"/>
  <circle cx="220" cy="230" r="50" fill="none" stroke="#FFFFFF" stroke-opacity="0.06" stroke-width="1.5"/>

  <!-- Sparkle crosses -->
  <g opacity="0.25" stroke="#FFFFFF" stroke-width="2.5" stroke-linecap="round">
    <line x1="780" y1="170" x2="780" y2="190"/>
    <line x1="770" y1="180" x2="790" y2="180"/>
  </g>
  <g opacity="0.15" stroke="#FFFFFF" stroke-width="2" stroke-linecap="round">
    <line x1="680" y1="130" x2="680" y2="144"/>
    <line x1="673" y1="137" x2="687" y2="137"/>
  </g>
  <g opacity="0.18" stroke="#FFFFFF" stroke-width="2" stroke-linecap="round">
    <line x1="300" y1="150" x2="300" y2="164"/>
    <line x1="293" y1="157" x2="307" y2="157"/>
  </g>

  <!-- Play button (top-left corner) -->
  <g transform="translate(130, 160)" opacity="0.18">
    <rect x="0" y="0" width="44" height="44" rx="10" fill="none" stroke="#FFFFFF" stroke-width="2.5"/>
    <polygon points="16,12 16,32 34,22" fill="#FFFFFF" opacity="0.7"/>
  </g>

  <!-- Layer stack indicator (left side) -->
  <g transform="translate(120, 420)" opacity="0.12">
    <line x1="0" y1="0" x2="50" y2="0" stroke="#FFFFFF" stroke-width="3" stroke-linecap="round"/>
    <line x1="0" y1="16" x2="38" y2="16" stroke="#FFFFFF" stroke-width="3" stroke-linecap="round"/>
    <line x1="0" y1="32" x2="44" y2="32" stroke="#FFFFFF" stroke-width="3" stroke-linecap="round"/>
    <circle cx="-10" cy="0" r="4" fill="#FFFFFF" opacity="0.6"/>
    <circle cx="-10" cy="16" r="4" fill="#FFFFFF" opacity="0.4"/>
    <circle cx="-10" cy="32" r="4" fill="#FFFFFF" opacity="0.5"/>
  </g>

  <!-- Composition corner brackets -->
  <g stroke="#FFFFFF" stroke-opacity="0.1" stroke-width="3" stroke-linecap="round" fill="none">
    <!-- top-left -->
    <path d="M 260 100 L 240 100 L 240 120"/>
    <!-- top-right -->
    <path d="M 764 100 L 784 100 L 784 120"/>
    <!-- bottom-left -->
    <path d="M 240 830 L 240 850 L 260 850"/>
    <!-- bottom-right -->
    <path d="M 784 830 L 784 850 L 764 850"/>
  </g>

  <!-- Extra motion particles scattered -->
  <circle cx="200" cy="620" r="3" fill="#FFFFFF" opacity="0.2"/>
  <circle cx="180" cy="660" r="2" fill="#FFFFFF" opacity="0.15"/>
  <circle cx="860" cy="380" r="3.5" fill="#FFFFFF" opacity="0.3"/>
  <circle cx="890" cy="350" r="2" fill="#FFFFFF" opacity="0.2"/>
  <circle cx="500" cy="200" r="2.5" fill="#FFFFFF" opacity="0.15"/>
  <circle cx="600" cy="170" r="2" fill="#FFFFFF" opacity="0.12"/>
  <circle cx="450" cy="800" r="3" fill="#FFFFFF" opacity="0.18"/>
  <circle cx="550" cy="830" r="2" fill="#FFFFFF" opacity="0.12"/>

  <!-- Floating ring (bottom-left) -->
  <circle cx="300" cy="780" r="24" fill="none" stroke="#FFFFFF" stroke-opacity="0.08" stroke-width="2"/>
  <circle cx="300" cy="780" r="14" fill="none" stroke="#FFFFFF" stroke-opacity="0.05" stroke-width="1.5"/>

  <!-- Easing curve mini graph (bottom-right) -->
  <g transform="translate(770, 700)" opacity="0.2">
    <rect x="0" y="0" width="100" height="100" rx="8" fill="none" stroke="#FFFFFF" stroke-width="3"/>
    <line x1="0" y1="100" x2="100" y2="0" stroke="#FFFFFF" stroke-width="2" stroke-dasharray="4 4" opacity="0.5"/>
    <path d="M 0 100 C 40 100, 60 0, 100 0" fill="none" stroke="#FFFFFF" stroke-width="4" stroke-linecap="round"/>
  </g>

  <!-- Timeline ticks (bottom) -->
  <g transform="translate(200, 880)" opacity="0.15">
    <line x1="0" y1="0" x2="624" y2="0" stroke="#FFFFFF" stroke-width="3" stroke-linecap="round"/>
    <line x1="0" y1="-8" x2="0" y2="8" stroke="#FFFFFF" stroke-width="3" stroke-linecap="round"/>
    <line x1="104" y1="-5" x2="104" y2="5" stroke="#FFFFFF" stroke-width="2" stroke-linecap="round"/>
    <line x1="208" y1="-8" x2="208" y2="8" stroke="#FFFFFF" stroke-width="3" stroke-linecap="round"/>
    <line x1="312" y1="-5" x2="312" y2="5" stroke="#FFFFFF" stroke-width="2" stroke-linecap="round"/>
    <line x1="416" y1="-8" x2="416" y2="8" stroke="#FFFFFF" stroke-width="3" stroke-linecap="round"/>
    <line x1="520" y1="-5" x2="520" y2="5" stroke="#FFFFFF" stroke-width="2" stroke-linecap="round"/>
    <line x1="624" y1="-8" x2="624" y2="8" stroke="#FFFFFF" stroke-width="3" stroke-linecap="round"/>
    <polygon points="306,12 318,12 312,20" fill="#FFFFFF" opacity="0.6"/>
  </g>
</svg>
